<svg width="332" height="78" viewBox="0 0 332 78" fill="none" xmlns="http://www.w3.org/2000/svg"><path d="M32.277 0C14.512 0 0 17.504 0 38.963c0 21.46 14.498 38.993 32.277 38.993s32.278-17.534 32.278-38.993S50.057 0 32.277 0m0 76.434c-13.055 0-23.637-16.803-23.637-37.47 0-20.669 10.582-37.472 23.637-37.472S55.93 18.28 55.93 38.963 45.332 76.434 32.277 76.434m-1.516-24.548c-1.59 0-2.649-.79-3.164-2.357-.368-1.12-.545-3.313-.545-6.566V37.41c1.045.21 2.193.329 3.489.329a32 32 0 0 0 6.667-.702c2.855-.612 5.063-1.552 6.697-2.835 2.016-1.597 3.017-3.686 3.017-6.223s-1.354-4.715-4.033-6.193c-2.708-1.477-6.388-2.208-11.024-2.208 0 0-7.815.03-15.645.044v.776c.912.269 1.56.806 1.928 1.657.353.85.544 2.164.544 3.91v16.937q0 4.455-.794 6.715c-.516 1.507-1.487 2.253-2.944 2.253 0 0 .059.388.103.791H30.76v-.79zm-3.709-30.472h1.825c3.047 0 5.328.567 6.815 1.701 1.413 1.045 2.105 2.612 2.105 4.686 0 2.537-.78 4.462-2.355 5.76-1.59 1.298-3.768 1.97-6.58 1.97h-1.824V21.429zm-5.71 21.504c0 2.97-.368 5.163-1.06 6.536-.81 1.612-2.164 2.417-4.018 2.417 1.427-.149 2.443-1.014 3.017-2.536.486-1.299.721-3.448.721-6.417V25.98c0-1.747-.191-3.06-.574-3.91-.368-.85-1.015-1.388-1.943-1.657 1.075 0 1.973.508 2.723 1.522.766.985 1.134 2.358 1.134 4.044zM49.704 56.75c-.486-.642-1.119-1.984-1.884-4.029-.604-1.686-1.354-2.88-2.223-3.552-.794-.596-2.06-1.074-3.885-1.432 1.84 0 3.414-.299 4.68-.925 1.693-.836 2.546-2.105 2.546-3.82 0-1.478-.603-2.642-1.795-3.522-1.192-.851-2.959-1.299-5.27-1.299H29.85v.478c.647.15 1.089.537 1.354 1.104q.353.85.353 2.418v10.207c0 1.716-.147 3-.412 3.88-.397 1.06-1 1.581-1.825 1.581v.508h9.552v-.508c-.883 0-1.501-.477-1.825-1.462-.265-.776-.397-2.104-.397-3.954v-4.298h1.545c1.148 0 2.164.597 3.003 1.79.515.732 1.06 1.896 1.633 3.522 0 0 .75 2.463 1.502 4.925h7.285v-.388c-.853-.254-1.501-.657-1.928-1.224zm-16.588-4.357c0 1.686-.206 2.984-.633 3.88-.5 1.06-1.295 1.581-2.384 1.581.839 0 1.442-.522 1.796-1.581.323-.896.47-2.194.47-3.88V42.187q0-1.567-.397-2.418a1.93 1.93 0 0 0-1.369-1.104c.795 0 1.443.343 1.87 1 .441.656.647 1.492.647 2.522zm5.093-5.268h-1.546v-7.864h1.546c1.457 0 2.62.253 3.503.776 1.118.656 1.678 1.73 1.678 3.193 0 1.373-.56 2.403-1.693 3.09-.913.536-2.09.805-3.488.805m78.73-16.205c0 3.387-1.339 6.177-4.032 8.326-2.164 1.701-5.152 2.955-8.949 3.79-2.9.627-5.888.926-8.934.926-1.722 0-3.282-.15-4.666-.433v7.461c0 4.343.25 7.268.736 8.76.692 2.119 2.105 3.164 4.224 3.164v1.06H74.3l-.132-1.06c1.913 0 3.238-1 3.93-3.015.692-2 1.03-4.999 1.03-8.968V28.248c0-2.373-.25-4.119-.721-5.238-.486-1.149-1.354-1.88-2.576-2.208v-1.06l20.959-.075c6.211 0 11.127.985 14.733 2.94 3.621 1.985 5.416 4.746 5.416 8.297zm-34.25 20.01V28.249c0-2.283-.485-4.089-1.486-5.432-1.015-1.343-2.222-2.014-3.65-2.014 1.237.328 2.105 1.06 2.62 2.208.5 1.134.765 2.88.765 5.238v22.683c0 3.97-.338 6.834-.971 8.565-.78 2.06-2.12 3.209-4.033 3.418q3.732 0 5.387-3.224c.942-1.865 1.398-4.79 1.398-8.76zm22.064-20.264c0-2.776-.942-4.865-2.812-6.283q-3.002-2.283-9.14-2.283h-2.458v18.877h2.458c3.754 0 6.683-.865 8.802-2.611 2.09-1.731 3.15-4.298 3.15-7.7m66.307 33.308h-15.999l-3.297-10.79c-1.266-3.551-2.443-6.103-3.547-7.67-1.84-2.641-4.062-3.984-6.623-3.984h-3.371v9.46c0 4.09.295 6.985.854 8.7.751 2.165 2.09 3.224 4.062 3.224v1.06h-21.018l-.059-1.06c1.84 0 3.165-1.164 3.974-3.477.663-1.895.987-4.745.987-8.506V28.502c0-2.283-.295-4.059-.825-5.312-.559-1.269-1.545-2.06-2.973-2.388v-1.06h26.479c5.063 0 8.919.956 11.539 2.866 2.634 1.895 3.959 4.462 3.959 7.7 0 3.775-1.869 6.566-5.578 8.387q-4.24 2.06-10.288 2.059c3.959.746 6.799 1.776 8.507 3.104 1.913 1.492 3.562 4.074 4.901 7.79 1.678 4.476 3.061 7.401 4.106 8.804.942 1.239 2.355 2.134 4.225 2.656v.866zM130.423 50.93V28.502c0-2.223-.486-4.074-1.428-5.521-.972-1.448-2.355-2.179-4.151-2.179 1.428.329 2.444 1.12 3.032 2.388.574 1.253.883 3.03.883 5.312v22.43c0 3.685-.338 6.52-1.03 8.505-.809 2.313-2.149 3.477-3.989 3.477 2.429 0 4.166-1.164 5.284-3.477.942-1.985 1.399-4.82 1.399-8.506m22.563-20.116c0-3.253-1.222-5.58-3.68-7.028-1.913-1.12-4.504-1.672-7.727-1.672h-3.371v17.266h3.371c3.106 0 5.667-.597 7.668-1.806 2.488-1.477 3.739-3.73 3.739-6.745zm73.161 11.222c0 7.297-2.487 13.087-7.403 17.4-4.548 3.985-10.141 5.954-16.794 5.954s-12.128-1.97-16.602-5.894q-7.419-6.514-7.418-17.46c0-7.297 2.487-13.236 7.477-17.698 4.577-4.104 10.096-6.163 16.602-6.163 6.505 0 12.187 2.044 16.735 6.103 4.93 4.432 7.403 10.342 7.403 17.758m-22.858 22.877c-6.211-.866-11.244-3.03-15.071-6.477-4.578-4.088-6.874-9.55-6.874-16.4s2.296-12.49 6.874-16.713c3.93-3.612 8.949-5.865 15.071-6.775q-10.178 0-16.955 6.491c-4.504 4.313-6.771 10.013-6.771 17.057s2.193 12.237 6.55 16.46c4.371 4.223 10.097 6.342 17.162 6.342zm10.347-22.877c0-7.178-1.03-12.624-3.12-16.385-2.09-3.745-4.945-5.626-8.566-5.626s-6.432 1.866-8.463 5.626c-2.046 3.746-3.061 9.207-3.061 16.385s1.015 12.43 3.061 16.027c2.031 3.612 4.857 5.402 8.463 5.402s6.447-1.73 8.463-5.223c2.149-3.73 3.238-9.132 3.238-16.206zm65.623-21.235c-2.208.657-3.886 2.537-5.019 5.581-.942 2.477-1.413 5.238-1.413 8.253v11.997c0 6.298-1.442 10.939-4.342 13.923-3.076 3.15-7.889 4.716-14.468 4.716-5.269 0-9.582-.925-12.923-2.79-4.165-2.314-6.255-5.79-6.255-10.432V28.622c0-2.94-.236-4.94-.692-5.954-.441-1.045-1.324-1.657-2.62-1.866v-1.06h19.414v1.06c-1.546.194-2.708.925-3.474 2.179-.795 1.238-1.177 3.119-1.177 5.64V48.32c0 4.238.765 7.52 2.281 9.879 1.707 2.656 4.313 3.969 7.786 3.969 5.093 0 8.772-1.418 11.024-4.208 2.046-2.582 3.076-6.566 3.076-11.983V34.8c0-4.402-.721-7.79-2.163-10.192-1.178-1.985-2.826-3.254-4.946-3.79v-1.06h15.926v1.06zm-28.421 43.291c-3.768-.582-6.682-1.731-8.758-3.477-2.487-2.074-3.738-4.94-3.738-8.58v-23.43c0-2.805-.442-4.82-1.295-6.013-.869-1.209-2.134-1.806-3.856-1.806 1.339.194 2.237.836 2.708 1.895.485 1.045.721 3.03.721 5.925v23.429c0 3.73 1.457 6.715 4.401 8.938 2.693 2.075 5.961 3.12 9.817 3.12m80.65-22.057c0 7.238-2.62 12.908-7.86 16.967-4.283 3.313-9.169 4.97-14.63 4.97h-24.889v-1.06c1.59 0 2.826-1.164 3.68-3.507.854-2.357 1.28-5.163 1.28-8.476V28.323c0-2.447-.235-4.238-.721-5.342-.5-1.12-1.369-1.836-2.649-2.179v-1.06h23.299c5.416 0 10.288 1.687 14.586 5.09 5.269 4.178 7.904 9.923 7.904 17.205m-38.916 8.894V28.323c0-2.537-.368-4.402-1.103-5.655-.736-1.24-2.105-1.866-4.107-1.866 1.281.329 2.208 1.045 2.708 2.179.515 1.104.78 2.91.78 5.342v22.608c0 3.343-.441 6.193-1.31 8.506-.853 2.313-2.119 3.477-3.767 3.477q3.422 0 5.21-3.67c1.06-2.165 1.604-4.94 1.604-8.328zm26.346-8.894c0-6.834-.942-11.744-2.811-14.728-2.164-3.478-6.035-5.224-11.642-5.224H300.3v28.891c0 4.835.382 7.85 1.133 9.028.75 1.18 2.59 1.776 5.49 1.776 4.327 0 7.536-2.268 9.626-6.835 1.589-3.477 2.384-7.79 2.384-12.923z" fill="#fff"/></svg>